#Comment line ignore any data following # character 
#Hierarchical Translation and Rotation (.htr) file 
[Header]	
#Header keywords are followed by a single value 
FileType HTR		#Single word string
DataType HTRS		#Translation followed by rotation and scale data
FileVersion 1		#integer
NumSegments 29		#integer
NumFrames 5		#integer
DataFrameRate 30		#integer, data frame rate in this file
EulerRotationOrder ZYX
CalibrationUnits mm
RotationUnits Degrees
GlobalAxisofGravity Y
BoneLengthAxis Y
ScaleFactor 1.00
[SegmentNames&Hierarchy]
#CHILD	PARENT
MASTER GLOBAL
weapon MASTER
back_slider weapon
front_bottom weapon
front_middle_part1 weapon
front_middle_part2 weapon
front_middle_part3 weapon
front_middle_part4 weapon
front_top weapon
wing_bottom_left weapon
wing_bottom_right weapon
wing_top_left weapon
wing_top_right weapon
front_bottom_rumble_left front_bottom
front_bottom_rumble_right front_bottom
back_rotate_bottom_left front_middle_part3
back_rotate_bottom_right front_middle_part3
back_rotate_top_left front_middle_part3
back_rotate_top_right front_middle_part3
front_middle_part3_left front_middle_part3
front_middle_part3_right front_middle_part3
wing_bottom_left_buckets_1 wing_bottom_left
wing_bottom_left_buckets_2 wing_bottom_left
wing_bottom_left_buckets_3 wing_bottom_left
wing_bottom_right_buckets wing_bottom_right
wing_top_left_buckets wing_top_left
wing_top_left_buckets_1 wing_top_left
wing_top_left_buckets_3 wing_top_left
wing_top_right_buckets wing_top_right
[BasePosition]
#SegmentName Tx, Ty, Tz, Rx, Ry, Rz, BoneLength
MASTER 0.000000 0.000000 0.000000 -90.000000 0.000000 0.000000 10.000000 
weapon 0.000000 0.000000 0.000000 0.000000 0.000000 0.000000 10.000000 
back_slider 0.000000 0.000000 0.000000 0.000000 0.000000 0.000000 10.000000 
front_bottom 0.000000 0.000000 0.000000 0.000000 0.000000 0.000000 10.000000 
front_middle_part1 0.000000 0.000000 0.000000 0.000000 0.000000 0.000000 10.000000 
front_middle_part2 0.000000 0.000000 0.000000 0.000000 0.000000 0.000000 10.000000 
front_middle_part3 0.000000 0.000000 0.000000 0.000000 0.000000 0.000000 10.000000 
front_middle_part4 0.000000 0.000000 0.000000 0.000000 0.000000 0.000000 10.000000 
front_top 0.000000 0.000000 0.000000 0.000000 0.000000 0.000000 10.000000 
wing_bottom_left 0.000000 0.000000 0.000000 0.000000 0.000000 0.000000 10.000000 
wing_bottom_right 0.000000 0.000000 0.000000 0.000000 0.000000 0.000000 10.000000 
wing_top_left 0.000000 0.000000 0.000000 0.000000 0.000000 0.000000 10.000000 
wing_top_right 0.000000 0.000000 0.000000 0.000000 0.000000 0.000000 10.000000 
front_bottom_rumble_left 0.000000 0.000000 0.000000 0.000000 0.000000 0.000000 10.000000 
front_bottom_rumble_right 0.000000 0.000000 0.000000 0.000000 0.000000 0.000000 10.000000 
back_rotate_bottom_left 0.000000 0.000000 0.000000 0.000000 0.000000 0.000000 10.000000 
back_rotate_bottom_right 0.000000 0.000000 0.000000 0.000000 0.000000 0.000000 10.000000 
back_rotate_top_left 0.000000 0.000000 0.000000 0.000000 0.000000 0.000000 10.000000 
back_rotate_top_right 0.000000 0.000000 0.000000 0.000000 0.000000 0.000000 10.000000 
front_middle_part3_left 0.000000 0.000000 0.000000 0.000000 0.000000 0.000000 10.000000 
front_middle_part3_right 0.000000 0.000000 0.000000 0.000000 0.000000 0.000000 10.000000 
wing_bottom_left_buckets_1 0.000000 0.000000 0.000000 0.000000 0.000000 0.000000 10.000000 
wing_bottom_left_buckets_2 0.000000 0.000000 0.000000 0.000000 0.000000 0.000000 10.000000 
wing_bottom_left_buckets_3 0.000000 0.000000 0.000000 0.000000 0.000000 0.000000 10.000000 
wing_bottom_right_buckets 0.000000 0.000000 0.000000 0.000000 0.000000 0.000000 10.000000 
wing_top_left_buckets 0.000000 0.000000 0.000000 0.000000 0.000000 0.000000 10.000000 
wing_top_left_buckets_1 0.000000 0.000000 0.000000 0.000000 0.000000 0.000000 10.000000 
wing_top_left_buckets_3 0.000000 0.000000 0.000000 0.000000 0.000000 0.000000 10.000000 
wing_top_right_buckets 0.000000 0.000000 0.000000 0.000000 0.000000 0.000000 10.000000 
#Beginning of Data. Separated by tabs
#Fr	Tx	Ty	Tz	Rx	Ry	Rz	SF
[MASTER]
41 -0.000019 0.000000 0.000000 0.000000 -0.000000 0.000000 0.000019
42 -0.000019 0.000000 0.000000 0.000000 -0.000000 0.000000 0.000019
43 -0.000019 0.000000 0.000000 0.000000 -0.000000 0.000000 0.000019
44 -0.000019 0.000000 0.000000 0.000000 -0.000000 0.000000 0.000019
45 -0.000019 0.000000 0.000000 0.000000 -0.000000 0.000000 0.000019
[weapon]
41 -0.000038 -79.014702 86.001579 0.000000 0.000000 -0.000020 116.788681
42 -0.000038 -79.014702 86.001579 0.000000 0.000000 -0.000020 116.788681
43 -0.000038 -79.014702 86.001579 0.000000 0.000000 -0.000020 116.788681
44 -0.000038 -79.014702 86.001579 0.000000 0.000000 -0.000020 116.788681
45 -0.000038 -79.014702 86.001579 0.000000 0.000000 -0.000020 116.788681
[back_slider]
41 0.000076 -99.818916 -85.991821 0.000000 -0.000000 0.000000 131.751312
42 0.000076 -100.520355 -85.991821 0.000000 -0.000000 0.000000 132.283539
43 0.000038 -100.760475 -85.991821 0.000000 -0.000000 0.000000 132.466095
44 0.000076 -75.960670 -85.991821 0.000000 -0.000000 0.000000 114.737167
45 0.000057 -21.401253 -85.991898 0.000000 -0.000000 0.000000 88.615005
[front_bottom]
41 0.000038 735.877319 -219.993134 1.084778 -0.001644 179.998322 768.057617
42 0.000038 736.887817 -219.952911 0.629766 -0.001651 179.998322 769.014282
43 0.000038 737.898254 -219.912704 0.239049 -0.001656 179.998337 769.971008
44 0.000038 738.459656 -219.884018 -0.067579 -0.001661 179.998337 770.500916
45 0.000038 739.020996 -219.855331 -0.270353 -0.001664 179.998337 771.030762
[front_middle_part1]
41 0.000000 519.313477 -85.992035 179.998749 -49.262222 179.998749 526.384949
42 0.000000 519.313477 -85.992035 179.998749 -50.008728 179.998749 526.384949
43 0.000000 519.313477 -85.992035 179.998764 -51.486641 179.998764 526.384949
44 0.000000 519.313477 -85.992035 179.998764 -53.787540 179.998764 526.384949
45 0.000000 519.313477 -85.992035 179.998779 -56.988171 179.998779 526.384949
[front_middle_part2]
41 0.000000 477.040344 -85.992035 179.981201 82.844398 179.981201 484.728912
42 0.000000 477.040344 -85.992035 179.979645 83.392975 179.979645 484.728912
43 0.000000 477.040344 -85.992035 179.976837 84.190262 179.976837 484.728912
44 0.000000 477.040344 -85.992035 179.971725 85.240997 179.971725 484.728912
45 0.000000 477.040344 -85.992035 179.961227 86.531357 179.961227 484.728912
[front_middle_part3]
41 0.000000 -232.977219 -85.991974 0.000000 -0.000000 0.000000 248.340485
42 0.000000 -232.977188 -85.991974 0.000000 -0.000000 0.000000 248.340454
43 0.000038 -227.044922 -85.991974 0.000000 -0.000000 0.000000 242.783890
44 0.000038 -212.898758 -85.991974 0.000000 -0.000000 0.000000 229.609467
45 0.000000 -196.014648 -85.991974 0.000000 -0.000000 0.000000 214.047562
[front_middle_part4]
41 0.000000 -443.853668 -85.992035 0.000000 -0.000000 0.000000 452.106964
42 0.000000 -443.853668 -85.992035 0.000000 -0.000000 0.000000 452.106964
43 0.000000 -443.853668 -85.992035 0.000000 -0.000000 0.000000 452.106964
44 0.000000 -443.853668 -85.992035 0.000000 -0.000000 0.000000 452.106964
45 0.000000 -443.853668 -85.992035 0.000000 -0.000000 0.000000 452.106964
[front_top]
41 0.000038 678.272217 -165.704956 -21.741194 0.001943 0.001317 698.220154
42 0.000038 678.272217 -165.704956 -21.962816 0.001946 0.001313 698.220154
43 0.000038 678.272217 -165.704956 -22.139170 0.001948 0.001310 698.220154
44 0.000038 678.272217 -165.704956 -22.270210 0.001949 0.001308 698.220154
45 0.000038 678.272217 -165.704956 -22.350868 0.001950 0.001307 698.220154
[wing_bottom_left]
41 -124.333710 235.191696 -217.766312 161.604126 52.812046 157.341507 343.796692
42 -124.333710 235.191696 -217.766312 161.564758 52.798225 157.290878 343.796692
43 -124.333710 235.191696 -217.766312 161.525940 52.790527 157.244583 343.796692
44 -124.333710 235.191696 -217.766312 161.508347 52.786770 157.219559 343.796692
45 -124.333710 235.191696 -217.766312 161.497742 52.784790 157.208954 343.796692
[wing_bottom_right]
41 124.947586 235.191696 -217.766144 0.000000 54.999989 0.000000 344.019073
42 124.947586 235.191696 -217.766144 0.000000 54.999989 0.000000 344.019073
43 124.947586 235.191696 -217.766144 0.000000 54.999989 0.000000 344.019073
44 124.947586 235.191696 -217.766144 0.000000 54.999989 0.000000 344.019073
45 124.947586 235.191696 -217.766144 0.000000 54.999989 0.000000 344.019073
[wing_top_left]
41 -124.333710 235.191696 62.502743 -159.449417 -52.226269 154.625763 273.277527
42 -124.333710 235.191696 62.502743 -159.411407 -52.211533 154.576447 273.277527
43 -124.333710 235.191696 62.502743 -159.373566 -52.202957 154.531067 273.277527
44 -124.333710 235.191696 62.502743 -159.356415 -52.198772 154.506470 273.277527
45 -124.333710 235.191696 62.502743 -159.346069 -52.196583 154.496094 273.277527
[wing_top_right]
41 131.595657 235.191696 62.502682 -0.000000 -55.000015 0.000000 276.657074
42 131.595657 235.191696 62.502682 -0.000000 -55.000015 0.000000 276.657074
43 131.595657 235.191696 62.502682 -0.000000 -55.000015 0.000000 276.657074
44 131.595657 235.191696 62.502682 -0.000000 -55.000015 0.000000 276.657074
45 131.595657 235.191696 62.502682 -0.000000 -55.000015 0.000000 276.657074
[front_bottom_rumble_left]
41 163.070297 263.743958 -16.969442 -129.881882 18.229330 75.387009 310.549133
42 163.070297 263.743958 -16.969442 -129.881882 18.229330 75.387009 310.549133
43 163.070297 263.743958 -16.969442 -129.881882 18.229330 75.387009 310.549133
44 163.070297 263.743958 -16.969442 -129.881882 18.229330 75.387009 310.549133
45 163.070297 263.743958 -16.969442 -129.881882 18.229330 75.387009 310.549133
[front_bottom_rumble_right]
41 -163.070480 263.743835 -16.969442 -50.118145 18.229362 104.612976 310.549133
42 -163.070480 263.743835 -16.969442 -50.118145 18.229362 104.612976 310.549133
43 -163.070480 263.743835 -16.969442 -50.118145 18.229362 104.612976 310.549133
44 -163.070480 263.743835 -16.969442 -50.118145 18.229362 104.612976 310.549133
45 -163.070480 263.743835 -16.969442 -50.118145 18.229362 104.612976 310.549133
[back_rotate_bottom_left]
41 -38.067558 -195.870575 -38.097980 0.000000 -0.000000 0.000000 203.140045
42 -38.067558 -195.870575 -38.097980 0.000000 -0.000000 0.000000 203.140045
43 -38.067558 -195.870575 -38.097980 0.000000 -0.000000 0.000000 203.140045
44 -38.067558 -195.870575 -38.097980 0.000000 -0.000000 0.000000 203.140045
45 -38.067558 -195.870575 -38.097980 0.000000 -0.000000 0.000000 203.140045
[back_rotate_bottom_right]
41 38.098610 -195.870575 -38.057903 0.000000 -0.000000 0.000000 203.138351
42 38.098610 -195.870575 -38.057903 0.000000 -0.000000 0.000000 203.138351
43 38.098610 -195.870575 -38.057903 0.000000 -0.000000 0.000000 203.138351
44 38.098610 -195.870575 -38.057903 0.000000 -0.000000 0.000000 203.138351
45 38.098610 -195.870575 -38.057903 0.000000 -0.000000 0.000000 203.138351
[back_rotate_top_left]
41 -38.074085 -195.870575 38.105885 0.000000 -0.000000 0.000000 203.142746
42 -38.074085 -195.870575 38.105885 0.000000 -0.000000 0.000000 203.142746
43 -38.074085 -195.870575 38.105885 0.000000 -0.000000 0.000000 203.142746
44 -38.074085 -195.870575 38.105885 0.000000 -0.000000 0.000000 203.142746
45 -38.074085 -195.870575 38.105885 0.000000 -0.000000 0.000000 203.142746
[back_rotate_top_right]
41 38.111603 -195.870575 38.079086 0.000000 -0.000000 0.000000 203.144760
42 38.111603 -195.870575 38.079086 0.000000 -0.000000 0.000000 203.144760
43 38.111603 -195.870575 38.079086 0.000000 -0.000000 0.000000 203.144760
44 38.111603 -195.870575 38.079086 0.000000 -0.000000 0.000000 203.144760
45 38.111603 -195.870575 38.079086 0.000000 -0.000000 0.000000 203.144760
[front_middle_part3_left]
41 -90.176353 364.727203 0.462952 89.999611 -0.000152 -43.670044 375.709869
42 -90.176353 364.727203 0.462952 90.003525 0.001436 -44.145134 375.709869
43 -90.176353 364.727203 0.462952 90.000801 0.000331 -44.394310 375.709869
44 -90.176353 364.727203 0.462952 90.000259 0.000106 -44.469826 375.709869
45 -90.176353 364.727203 0.462952 90.001175 0.000345 -32.937565 375.709869
[front_middle_part3_right]
41 91.046051 364.727081 0.046265 -90.000000 0.000003 180.000000 375.919159
42 91.046051 364.727081 0.046265 -90.000000 0.000003 180.000000 375.919159
43 91.046051 364.727081 0.046265 -90.000000 0.000003 180.000000 375.919159
44 91.046051 364.727081 0.046265 -90.000000 0.000003 180.000000 375.919159
45 91.046051 364.727081 0.046265 -90.000000 0.000003 180.000000 375.919159
[wing_bottom_left_buckets_1]
41 -47.610477 -288.454193 -9.889640 -0.000027 0.000020 -0.000035 292.524170
42 -47.610477 -288.454193 -9.889640 -0.000027 0.000020 -0.000035 292.524170
43 -47.610477 -288.454193 -9.889640 -0.000027 0.000020 -0.000035 292.524170
44 -47.610477 -288.454193 -9.889640 -0.000027 0.000020 -0.000035 292.524170
45 -47.610477 -288.454193 -9.889640 -0.000027 0.000020 -0.000035 292.524170
[wing_bottom_left_buckets_2]
41 -47.610565 -358.672546 -9.889595 -0.000031 -0.000003 -0.000031 361.953827
42 -47.610565 -358.672546 -9.889595 -0.000031 -0.000003 -0.000031 361.953827
43 -47.610565 -358.672546 -9.889595 -0.000031 -0.000003 -0.000031 361.953827
44 -47.610565 -358.672546 -9.889595 -0.000031 -0.000003 -0.000031 361.953827
45 -47.610565 -358.672546 -9.889595 -0.000031 -0.000003 -0.000031 361.953827
[wing_bottom_left_buckets_3]
41 -47.610672 -428.104828 -9.889513 -0.000027 0.000020 -0.000035 430.857635
42 -47.610672 -428.104828 -9.889513 -0.000027 0.000020 -0.000035 430.857635
43 -47.610672 -428.104828 -9.889513 -0.000027 0.000020 -0.000035 430.857635
44 -47.610672 -428.104828 -9.889513 -0.000027 0.000020 -0.000035 430.857635
45 -47.610672 -428.104828 -9.889513 -0.000027 0.000020 -0.000035 430.857635
[wing_bottom_right_buckets]
41 -47.962635 -358.672546 9.386807 0.000027 0.000061 -0.000035 361.986908
42 -47.962635 -358.672546 9.386807 0.000027 0.000061 -0.000035 361.986908
43 -47.962635 -358.672546 9.386807 0.000027 0.000061 -0.000035 361.986908
44 -47.962635 -358.672546 9.386807 0.000027 0.000061 -0.000035 361.986908
45 -47.962635 -358.672546 9.386807 0.000027 0.000061 -0.000035 361.986908
[wing_top_left_buckets]
41 -45.484066 -358.586609 10.598831 0.001951 16.028444 0.001951 361.615112
42 -45.484066 -358.586609 10.598831 0.001951 16.028444 0.001951 361.615112
43 -45.484066 -358.586609 10.598831 0.001951 16.028444 0.001951 361.615112
44 -45.484066 -358.586609 10.598831 0.001951 16.028444 0.001951 361.615112
45 -45.484066 -358.586609 10.598831 0.001951 16.028444 0.001951 361.615112
[wing_top_left_buckets_1]
41 -45.484005 -287.973450 10.598879 0.000027 0.000000 -0.000035 291.735931
42 -45.484005 -287.973450 10.598879 0.000027 0.000000 -0.000035 291.735931
43 -45.484005 -287.973450 10.598879 0.000027 0.000000 -0.000035 291.735931
44 -45.484005 -287.973450 10.598879 0.000027 0.000000 -0.000035 291.735931
45 -45.484005 -287.973450 10.598879 0.000027 0.000000 -0.000035 291.735931
[wing_top_left_buckets_3]
41 -45.484154 -426.601654 10.598794 0.000027 0.000000 -0.000035 429.150452
42 -45.484154 -426.601654 10.598794 0.000027 0.000000 -0.000035 429.150452
43 -45.484154 -426.601654 10.598794 0.000027 0.000000 -0.000035 429.150452
44 -45.484154 -426.601654 10.598794 0.000027 0.000000 -0.000035 429.150452
45 -45.484154 -426.601654 10.598794 0.000027 0.000000 -0.000035 429.150452
[wing_top_right_buckets]
41 -46.906902 -358.586700 -9.449236 -0.000044 -0.000038 -0.000035 361.765076
42 -46.906902 -358.586700 -9.449236 -0.000044 -0.000038 -0.000035 361.765076
43 -46.906902 -358.586700 -9.449236 -0.000044 -0.000038 -0.000035 361.765076
44 -46.906902 -358.586700 -9.449236 -0.000044 -0.000038 -0.000035 361.765076
45 -46.906902 -358.586700 -9.449236 -0.000044 -0.000038 -0.000035 361.765076
